<svg width="60" height="85" viewBox="0 0 60 85" fill="none" xmlns="http://www.w3.org/2000/svg">
<path fill-rule="evenodd" clip-rule="evenodd" d="M5.66992 27.974C5.66992 26.7168 6.68901 25.6978 7.94613 25.6978H38.6749C39.932 25.6978 40.9511 26.7168 40.9511 27.974V43H22.2762C21.0191 43 20 44.0191 20 45.2762V52.557H7.94613C6.68902 52.557 5.66992 51.5379 5.66992 50.2808V27.974ZM8.6294 30.7059H37.9924V35.2583H8.6294V30.7059Z" fill="#D43333"/>
<path fill-rule="evenodd" clip-rule="evenodd" d="M24.2762 46C23.0191 46 22 47.0191 22 48.2762V70.583C22 71.8401 23.0191 72.8592 24.2762 72.8592H55.005C56.2621 72.8592 57.2812 71.8401 57.2812 70.583V48.2762C57.2812 47.0191 56.2621 46 55.005 46H24.2762ZM54.3226 51.0079H24.9596V55.5603H54.3226V51.0079Z" fill="#D43333"/>
<path d="M30.3037 17.9173L35.3366 14.043C35.4114 13.9854 35.5198 14.0388 35.5198 14.1332V21.8818C35.5198 21.9762 35.4114 22.0296 35.3366 21.9719L30.3037 18.0977C30.2445 18.0521 30.2445 17.9629 30.3037 17.9173Z" fill="#D43333" stroke="#D43333" stroke-width="0.227621"/>
<path d="M19.8174 64.5197L14.7845 68.394C14.7097 68.4516 14.6013 68.3982 14.6013 68.3038L14.6013 60.5552C14.6013 60.4608 14.7097 60.4075 14.7845 60.4651L19.8174 64.3393C19.8765 64.3849 19.8765 64.4742 19.8174 64.5197Z" fill="#D43333" stroke="#D43333" stroke-width="0.227621"/>
<path d="M34.5518 18.0164H41.0389C43.1634 17.9026 47.4941 18.8138 47.8676 23.3655C48.2318 27.8041 48.0952 29.2745 48.0952 31.4369" stroke="#D43333" stroke-width="1.36572" stroke-linecap="round"/>
<path d="M15.5684 64.4206H9.08117C6.95672 64.5344 2.62603 63.6232 2.25256 59.0715C1.88837 54.6329 2.02494 53.1625 2.02494 51.0001" stroke="#D43333" stroke-width="1.36572" stroke-linecap="round"/>
</svg>
